<svg xmlns="http://www.w3.org/2000/svg" viewBox="0 0 128 128">
  <defs>
    <linearGradient id="roof" x1="0%" x2="100%" y1="0%" y2="100%">
      <stop offset="0%" stop-color="#ffb52f" />
      <stop offset="100%" stop-color="#ff6d1f" />
    </linearGradient>
    <linearGradient id="house" x1="0%" x2="100%" y1="0%" y2="100%">
      <stop offset="0%" stop-color="#0f4ea9" />
      <stop offset="100%" stop-color="#0b2d72" />
    </linearGradient>
    <linearGradient id="field" x1="0%" x2="100%" y1="0%" y2="0%">
      <stop offset="0%" stop-color="#78c92f" />
      <stop offset="100%" stop-color="#2f8f2c" />
    </linearGradient>
  </defs>
  <rect width="128" height="128" rx="28" fill="#f6f0e7" />
  <path d="M18 92c18-10 42-13 68-8 10 2 18 5 24 4-8 8-19 13-33 16H34c-7-3-12-6-16-12Z" fill="url(#field)" />
  <path d="M70 30c8 7 14 18 16 34h-8c-2-15-6-25-13-35l5 1Z" fill="#b55f39" />
  <path d="M58 28c7 0 14 5 18 10-6-2-12-2-18 0 2-4 5-7 9-10h-9Zm-7 10c7 0 13 2 18 7-6 0-11 2-16 5 1-4 3-8 6-12h-8Zm17-5c6 0 12 2 17 7-6-2-12-1-17 1 1-3 3-5 5-8h-5Z" fill="#69b312" stroke="#377d16" stroke-width="1" stroke-linejoin="round" />
  <path d="M20 62 48 44l28 18v24H20V62Z" fill="url(#house)" />
  <path d="M12 66 48 38l36 28H72L48 49 24 66H12Z" fill="url(#roof)" />
  <rect x="34" y="66" width="13" height="15" rx="1.5" fill="#f3f8ff" />
  <rect x="53" y="67" width="16" height="12" rx="1.5" fill="#f3f8ff" />
  <path d="M40.5 66v15M34 73.5h13M61 67v12" stroke="#0f4ea9" stroke-width="1.6" />
</svg>
