<svg xmlns="http://www.w3.org/2000/svg" viewBox="0 0 128 128" role="img" aria-label="BienesRaicesCR">
  <defs>
    <linearGradient id="blue" x1="0%" x2="100%" y1="0%" y2="0%">
      <stop offset="0%" stop-color="#0d3f96" />
      <stop offset="100%" stop-color="#1a66d2" />
    </linearGradient>
    <linearGradient id="red" x1="0%" x2="100%" y1="0%" y2="0%">
      <stop offset="0%" stop-color="#d91422" />
      <stop offset="100%" stop-color="#ff2c3c" />
    </linearGradient>
    <linearGradient id="house" x1="0%" x2="100%" y1="0%" y2="100%">
      <stop offset="0%" stop-color="#174cb4" />
      <stop offset="100%" stop-color="#0b2f76" />
    </linearGradient>
    <linearGradient id="ground" x1="0%" x2="100%" y1="0%" y2="0%">
      <stop offset="0%" stop-color="#71b82c" />
      <stop offset="100%" stop-color="#2f8d19" />
    </linearGradient>
  </defs>

  <rect width="128" height="128" rx="28" fill="#f4f8ff" />
  <path d="M12 24c20-10 38-13 62-10 17 2 30 6 44 3 5-1 8 0 10 1v24c-5-1-9-1-15 0-16 3-32 0-47-3-23-4-39-3-54 7V24Z" fill="url(#blue)" />
  <path d="M7 38c23-10 42-12 65-8 18 3 32 7 48 4 4-1 6-1 8 0v16c-5-1-9-1-14 0-19 3-34 0-52-3-22-4-37-4-55 5V38Z" fill="#ffffff" />
  <path d="M5 51c23-8 43-9 66-5 21 4 35 7 51 5 3 0 4 0 6 0v15c-5 0-9 0-14 1-19 2-34-1-56-4-22-4-38-4-53 4V51Z" fill="url(#red)" />
  <path d="M11 64c23-5 42-6 66-3 24 3 40 5 51 4v11H11V64Z" fill="#ffffff" />
  <path d="M14 76c19-2 38-2 61 0 23 2 38 3 53 0v10H14V76Z" fill="url(#blue)" />

  <path d="M24 103c16-7 30-9 44-8 13 1 24 4 36 5 8 1 16 0 24-2-6 6-15 11-28 14H53c-12-1-21-4-29-9Z" fill="url(#ground)" />
  <path d="M37 104c11-3 21-4 31-3 7 1 13 2 20 5" fill="none" stroke="#215d18" stroke-width="3" stroke-linecap="round" />

  <ellipse cx="76" cy="33" rx="10" ry="10" fill="#ffffff" stroke="#d6dde8" stroke-width="1.4" />
  <circle cx="76" cy="33" r="5.4" fill="#1f7b35" opacity="0.9" />

  <path d="M31 82 55 61l24 21v17H31V82Z" fill="url(#house)" stroke="#09265f" stroke-width="2.2" />
  <path d="M27 84 55 57l27 26h-9L55 67 36 84H27Z" fill="url(#red)" stroke="#ffffff" stroke-width="2.4" />
  <path d="M68 80 86 65l19 16v18H68V80Z" fill="url(#house)" stroke="#09265f" stroke-width="2.2" />
  <path d="M63 81 86 60l23 21h-8L86 67 71 81h-8Z" fill="url(#blue)" stroke="#ffffff" stroke-width="2.4" />

  <rect x="44" y="77" width="8" height="8" rx="1" fill="#ffffff" />
  <rect x="54" y="77" width="8" height="8" rx="1" fill="#ffffff" />
  <rect x="50" y="87" width="10" height="12" rx="1.3" fill="#ffffff" />
  <rect x="78" y="80" width="7" height="7" rx="1" fill="#ffffff" />
  <rect x="87" y="80" width="7" height="7" rx="1" fill="#ffffff" />
</svg>
